HIERARCHY
ROOT Hips
{
	OFFSET 0.053599 88.859886 3.107447
	CHANNELS 6 Xposition Yposition Zposition Zrotation Yrotation Xrotation 
	JOINT Spine
	{
		OFFSET -0.000000 8.814246 -2.080107
		CHANNELS 3 Zrotation Yrotation Xrotation
		JOINT Spine1
		{
			OFFSET 0.000000 8.844141 0.000000
			CHANNELS 3 Zrotation Yrotation Xrotation
			JOINT Spine2
			{
				OFFSET -0.000000 11.682268 0.000000
				CHANNELS 3 Zrotation Yrotation Xrotation
				JOINT Spine3
				{
					OFFSET 0.000000 11.746700 0.000000
					CHANNELS 3 Zrotation Yrotation Xrotation
					JOINT Neck
					{
						OFFSET -0.000000 17.658264 -0.000000
						CHANNELS 3 Zrotation Yrotation Xrotation
						JOINT Neck1
						{
							OFFSET -0.000000 5.101515 -0.000000
							CHANNELS 3 Zrotation Yrotation Xrotation
							JOINT Head
							{
								OFFSET 0.000000 5.101515 0.000000
								CHANNELS 3 Zrotation Yrotation Xrotation
								JOINT HeadEnd
								{
									OFFSET 0.000000 11.655085 0.000000
									CHANNELS 3 Zrotation Yrotation Xrotation
									End Site
									{
										OFFSET 0.000000 0.000000 0.000000
									}
								}
							}
						}
					}
					JOINT RightShoulder
					{
						OFFSET -2.625389 11.175210 0.000000
						CHANNELS 3 Zrotation Yrotation Xrotation
						JOINT RightArm
						{
							OFFSET -0.000000 10.434715 -0.000000
							CHANNELS 3 Zrotation Yrotation Xrotation
							JOINT RightForeArm
							{
								OFFSET -0.000000 29.628420 0.000000
								CHANNELS 3 Zrotation Yrotation Xrotation
								JOINT RightHand
								{
									OFFSET -0.000000 22.857611 0.000000
									CHANNELS 3 Zrotation Yrotation Xrotation
									JOINT RightHandThumb1
									{
										OFFSET -2.867323 3.959563 2.944291
										CHANNELS 3 Zrotation Yrotation Xrotation
										JOINT RightHandThumb2
										{
											OFFSET 0.000000 3.350399 0.000000
											CHANNELS 3 Zrotation Yrotation Xrotation
											JOINT RightHandThumb3
											{
												OFFSET 0.000000 3.756509 -0.000000
												CHANNELS 3 Zrotation Yrotation Xrotation
												JOINT RightHandThumb4
												{
													OFFSET 0.000000 3.147345 0.000000
													CHANNELS 3 Zrotation Yrotation Xrotation
													End Site
													{
														OFFSET 0.000000 0.000000 0.000000
													}
												}
											}
										}
									}
									JOINT RightHandIndex1
									{
										OFFSET -0.086752 10.030893 2.345280
										CHANNELS 3 Zrotation Yrotation Xrotation
										JOINT RightHandIndex2
										{
											OFFSET -0.000000 4.061090 0.000000
											CHANNELS 3 Zrotation Yrotation Xrotation
											JOINT RightHandIndex3
											{
												OFFSET -0.000000 3.248873 0.000000
												CHANNELS 3 Zrotation Yrotation Xrotation
												JOINT RightHandIndex4
												{
													OFFSET 0.000000 2.639709 -0.000000
													CHANNELS 3 Zrotation Yrotation Xrotation
													End Site
													{
														OFFSET 0.000000 0.000000 0.000000
													}
												}
											}
										}
									}
									JOINT RightHandMiddle1
									{
										OFFSET 0.104102 9.502952 0.006768
										CHANNELS 3 Zrotation Yrotation Xrotation
										JOINT RightHandMiddle2
										{
											OFFSET 0.000000 4.568727 0.000000
											CHANNELS 3 Zrotation Yrotation Xrotation
											JOINT RightHandMiddle3
											{
												OFFSET 0.000000 3.654981 -0.000000
												CHANNELS 3 Zrotation Yrotation Xrotation
												JOINT RightHandMiddle4
												{
													OFFSET -0.000000 2.741236 -0.000000
													CHANNELS 3 Zrotation Yrotation Xrotation
													End Site
													{
														OFFSET 0.000000 0.000000 0.000000
													}
												}
											}
										}
									}
									JOINT RightHandRing1
									{
										OFFSET 0.086752 8.921708 -2.267442
										CHANNELS 3 Zrotation Yrotation Xrotation
										JOINT RightHandRing2
										{
											OFFSET -0.000000 4.061090 0.000000
											CHANNELS 3 Zrotation Yrotation Xrotation
											JOINT RightHandRing3
											{
												OFFSET 0.000000 3.654981 -0.000000
												CHANNELS 3 Zrotation Yrotation Xrotation
												JOINT RightHandRing4
												{
													OFFSET 0.000000 2.741236 -0.000000
													CHANNELS 3 Zrotation Yrotation Xrotation
													End Site
													{
														OFFSET 0.000000 0.000000 0.000000
													}
												}
											}
										}
									}
									JOINT RightHandPinky1
									{
										OFFSET -0.173504 7.976997 -4.467199
										CHANNELS 3 Zrotation Yrotation Xrotation
										JOINT RightHandPinky2
										{
											OFFSET 0.000000 3.350399 -0.000000
											CHANNELS 3 Zrotation Yrotation Xrotation
											JOINT RightHandPinky3
											{
												OFFSET -0.000000 2.842763 0.000000
												CHANNELS 3 Zrotation Yrotation Xrotation
												JOINT RightHandPinky4
												{
													OFFSET -0.000000 2.639709 0.000000
													CHANNELS 3 Zrotation Yrotation Xrotation
													End Site
													{
														OFFSET 0.000000 0.000000 0.000000
													}
												}
											}
										}
									}
									JOINT RightForeArmEnd
									{
										OFFSET 0.000000 0.000000 0.000000
										CHANNELS 3 Zrotation Yrotation Xrotation
										End Site
										{
											OFFSET 0.000000 0.000000 0.000000
										}
									}
								}
								JOINT RightArmEnd
								{
									OFFSET 0.000000 0.000000 0.000000
									CHANNELS 3 Zrotation Yrotation Xrotation
									End Site
									{
										OFFSET 0.000000 0.000000 0.000000
									}
								}
							}
						}
					}
					JOINT LeftShoulder
					{
						OFFSET 2.625389 11.175210 0.000000
						CHANNELS 3 Zrotation Yrotation Xrotation
						JOINT LeftArm
						{
							OFFSET 0.000000 10.813635 -0.000000
							CHANNELS 3 Zrotation Yrotation Xrotation
							JOINT LeftForeArm
							{
								OFFSET 0.000000 28.724781 0.000000
								CHANNELS 3 Zrotation Yrotation Xrotation
								JOINT LeftHand
								{
									OFFSET 0.644384 25.716167 -0.328871
									CHANNELS 3 Zrotation Yrotation Xrotation
									JOINT LeftHandThumb1
									{
										OFFSET 2.867323 3.959563 2.944291
										CHANNELS 3 Zrotation Yrotation Xrotation
										JOINT LeftHandThumb2
										{
											OFFSET 0.000000 3.350399 0.000000
											CHANNELS 3 Zrotation Yrotation Xrotation
											JOINT LeftHandThumb3
											{
												OFFSET -0.000000 3.756509 0.000000
												CHANNELS 3 Zrotation Yrotation Xrotation
												JOINT LeftHandThumb4
												{
													OFFSET -0.000000 3.100000 0.000000
													CHANNELS 3 Zrotation Yrotation Xrotation
													End Site
													{
														OFFSET 0.000000 0.000000 0.000000
													}
												}
											}
										}
									}
									JOINT LeftHandIndex1
									{
										OFFSET 0.086752 10.030893 2.345280
										CHANNELS 3 Zrotation Yrotation Xrotation
										JOINT LeftHandIndex2
										{
											OFFSET -0.000000 4.061090 -0.000000
											CHANNELS 3 Zrotation Yrotation Xrotation
											JOINT LeftHandIndex3
											{
												OFFSET 0.000000 3.248873 -0.000000
												CHANNELS 3 Zrotation Yrotation Xrotation
												JOINT LeftHandIndex4
												{
													OFFSET 0.000000 2.639709 -0.000000
													CHANNELS 3 Zrotation Yrotation Xrotation
													End Site
													{
														OFFSET 0.000000 0.000000 0.000000
													}
												}
											}
										}
									}
									JOINT LeftHandMiddle1
									{
										OFFSET -0.104102 9.502952 0.006768
										CHANNELS 3 Zrotation Yrotation Xrotation
										JOINT LeftHandMiddle2
										{
											OFFSET -0.000000 4.568727 -0.000000
											CHANNELS 3 Zrotation Yrotation Xrotation
											JOINT LeftHandMiddle3
											{
												OFFSET 0.000000 3.654981 0.000000
												CHANNELS 3 Zrotation Yrotation Xrotation
												JOINT LeftHandMiddle4
												{
													OFFSET 0.000000 2.741236 -0.000000
													CHANNELS 3 Zrotation Yrotation Xrotation
													End Site
													{
														OFFSET 0.000000 0.000000 0.000000
													}
												}
											}
										}
									}
									JOINT LeftHandRing1
									{
										OFFSET -0.086752 8.921708 -2.267442
										CHANNELS 3 Zrotation Yrotation Xrotation
										JOINT LeftHandRing2
										{
											OFFSET 0.000000 4.061090 0.000000
											CHANNELS 3 Zrotation Yrotation Xrotation
											JOINT LeftHandRing3
											{
												OFFSET 0.000000 3.654981 0.000000
												CHANNELS 3 Zrotation Yrotation Xrotation
												JOINT LeftHandRing4
												{
													OFFSET 0.000000 2.741236 0.000000
													CHANNELS 3 Zrotation Yrotation Xrotation
													End Site
													{
														OFFSET 0.000000 0.000000 0.000000
													}
												}
											}
										}
									}
									JOINT LeftHandPinky1
									{
										OFFSET 0.173504 7.976997 -4.467199
										CHANNELS 3 Zrotation Yrotation Xrotation
										JOINT LeftHandPinky2
										{
											OFFSET -0.000000 3.350399 -0.000000
											CHANNELS 3 Zrotation Yrotation Xrotation
											JOINT LeftHandPinky3
											{
												OFFSET 0.000000 2.842763 0.000000
												CHANNELS 3 Zrotation Yrotation Xrotation
												JOINT LeftHandPinky4
												{
													OFFSET -0.000000 2.639709 -0.000000
													CHANNELS 3 Zrotation Yrotation Xrotation
													End Site
													{
														OFFSET 0.000000 0.000000 0.000000
													}
												}
											}
										}
									}
									JOINT LeftForeArmEnd
									{
										OFFSET 0.000000 0.000000 0.000000
										CHANNELS 3 Zrotation Yrotation Xrotation
										End Site
										{
											OFFSET 0.000000 0.000000 0.000000
										}
									}
								}
								JOINT LeftArmEnd
								{
									OFFSET 0.000000 0.000000 0.000000
									CHANNELS 3 Zrotation Yrotation Xrotation
									End Site
									{
										OFFSET 0.000000 0.000000 0.000000
									}
								}
							}
						}
					}
				}
			}
		}
	}
	JOINT RightUpLeg
	{
		OFFSET -11.289943 0.000000 0.000000
		CHANNELS 3 Zrotation Yrotation Xrotation
		JOINT RightLeg
		{
			OFFSET 0.000000 -38.200325 0.000000
			CHANNELS 3 Zrotation Yrotation Xrotation
			JOINT RightFoot
			{
				OFFSET -0.000000 -39.900856 -0.000000
				CHANNELS 3 Zrotation Yrotation Xrotation
				JOINT RightToeBase
				{
					OFFSET 0.000000 0.000000 15.261641
					CHANNELS 3 Zrotation Yrotation Xrotation
					JOINT RightToeBaseEnd
					{
						OFFSET 0.000000 0.000000 7.370709
						CHANNELS 3 Zrotation Yrotation Xrotation
						End Site
						{
							OFFSET 0.000000 0.000000 0.000000
						}
					}
				}
				JOINT RightLegEnd
				{
					OFFSET 0.000000 0.000000 0.000000
					CHANNELS 3 Zrotation Yrotation Xrotation
					End Site
					{
						OFFSET 0.000000 0.000000 0.000000
					}
				}
			}
			JOINT RightUpLegEnd
			{
				OFFSET 0.000000 0.000000 0.000000
				CHANNELS 3 Zrotation Yrotation Xrotation
				End Site
				{
					OFFSET 0.000000 0.000000 0.000000
				}
			}
		}
	}
	JOINT LeftUpLeg
	{
		OFFSET 11.315661 -0.000000 0.000000
		CHANNELS 3 Zrotation Yrotation Xrotation
		JOINT LeftLeg
		{
			OFFSET -0.000000 -38.200325 -0.000000
			CHANNELS 3 Zrotation Yrotation Xrotation
			JOINT LeftFoot
			{
				OFFSET 0.000000 -39.900856 -0.000000
				CHANNELS 3 Zrotation Yrotation Xrotation
				JOINT LeftToeBase
				{
					OFFSET -0.000000 -0.000000 15.261641
					CHANNELS 3 Zrotation Yrotation Xrotation
					JOINT LeftToeBaseEnd
					{
						OFFSET 0.000000 -0.000000 7.539996
						CHANNELS 3 Zrotation Yrotation Xrotation
						End Site
						{
							OFFSET 0.000000 0.000000 0.000000
						}
					}
				}
				JOINT LeftLegEnd
				{
					OFFSET 0.000000 0.000000 0.000000
					CHANNELS 3 Zrotation Yrotation Xrotation
					End Site
					{
						OFFSET 0.000000 0.000000 0.000000
					}
				}
			}
			JOINT LeftUpLegEnd
			{
				OFFSET 0.000000 0.000000 0.000000
				CHANNELS 3 Zrotation Yrotation Xrotation
				End Site
				{
					OFFSET 0.000000 0.000000 0.000000
				}
			}
		}
	}
}
MOTION
Frames: 5
Frame Time: 0.016667
0.057477 88.595879 4.002054 -0.267466 -1.080646 -11.378143 1.277125 0.081028 7.468430 0.026521 0.153524 2.405295 -0.668938 0.506227 5.288661 -1.478500 0.523119 4.686424 -0.418135 0.563766 5.353325 0.343510 0.295843 -2.827590 -0.422650 -1.237096 -19.884758 0.000000 0.000000 0.000000 91.312859 -0.117448 10.728655 67.143860 -27.322187 3.731131 0.012497 16.700842 28.161030 3.136125 11.831222 -7.838098 20.200718 29.997944 61.734600 -8.816059 -12.873771 -21.565063 -6.601212 -8.455071 -14.918677 0.000000 0.000000 0.000000 14.338771 -11.362950 0.203382 11.071309 0.307910 1.518480 10.755247 -0.119602 1.504736 0.000000 0.000000 0.000000 13.378558 -5.782618 -0.852114 9.739104 0.423921 0.573073 10.256056 -0.070745 0.509654 0.000000 0.000000 0.000000 14.306936 1.980452 -0.772329 10.669787 -0.874513 -0.876860 10.645193 0.080964 -0.648153 0.000000 0.000000 0.000000 13.449485 10.551402 -1.655884 10.633756 -1.644113 -2.457738 10.507504 0.253909 -2.064722 0.000000 0.000000 0.000000 0.000000 0.000000 0.000000 0.000000 0.000000 0.000000 -89.242813 0.347806 4.503594 -70.727409 12.230362 -6.186182 -0.308053 -13.702257 57.597385 -3.127706 -6.527712 -14.876090 -19.877609 -30.111385 61.909664 8.571115 12.189867 -20.634775 6.351931 8.209554 -14.506585 0.000000 0.000000 0.000000 -15.555200 -6.105664 3.877385 -10.134700 0.271914 -1.503228 -10.031455 -0.199753 -1.409840 0.000000 0.000000 0.000000 -15.728007 -0.780531 1.193920 -10.033060 0.398381 -0.664275 -10.281470 -0.087060 -0.531241 0.000000 0.000000 0.000000 -20.326380 7.726160 -1.245962 -13.009502 -0.834594 1.045480 -13.041539 0.126407 0.799210 0.000000 0.000000 0.000000 -23.423918 16.723661 -4.732667 -15.117826 -1.408664 3.332765 -14.587470 0.539022 2.856240 0.000000 0.000000 0.000000 0.000000 0.000000 0.000000 0.000000 0.000000 0.000000 -0.875268 -9.601606 16.684555 -0.062528 -0.706489 4.700702 -2.796092 -7.293418 16.273239 -0.881954 0.899195 -18.102673 0.000000 0.000000 0.000000 0.000000 0.000000 0.000000 0.000000 0.000000 0.000000 -1.389894 -6.911018 9.772054 0.065470 0.307722 11.634042 3.800209 -1.313987 15.612684 0.228196 -0.454027 -20.575571 0.000000 0.000000 0.000000 0.000000 0.000000 0.000000 0.000000 0.000000 0.000000 
0.046388 88.586510 4.045388 -0.259833 -1.064348 -11.408280 1.275592 0.079781 7.492574 0.026263 0.154241 2.340858 -0.698798 0.510831 5.355406 -1.486438 0.512576 4.705550 -0.402950 0.567269 5.444797 0.321052 0.298306 -2.772687 -0.432082 -1.226254 -19.923208 0.000000 0.000000 0.000000 91.320839 -0.133196 10.750648 67.074371 -27.646692 3.830060 0.000031 16.492685 27.909033 3.570498 11.777432 -7.737209 20.198908 29.999937 61.738594 -8.801905 -12.854973 -21.543894 -6.593126 -8.450619 -14.903800 0.000000 0.000000 0.000000 14.257882 -11.359491 0.195041 11.052616 0.320254 1.480845 10.725720 -0.107220 1.467429 0.000000 0.000000 0.000000 13.283105 -5.767248 -0.905281 9.718143 0.428864 0.558759 10.226856 -0.066183 0.496497 0.000000 0.000000 0.000000 14.129841 2.017627 -0.882977 10.600601 -0.882612 -0.853752 10.586764 0.074361 -0.629964 0.000000 0.000000 0.000000 13.206076 10.591220 -1.831744 10.536998 -1.666085 -2.388183 10.423690 0.235721 -2.011903 0.000000 0.000000 0.000000 0.000000 0.000000 0.000000 0.000000 0.000000 0.000000 -89.297852 0.332358 4.560108 -70.739319 12.448115 -6.080861 -0.307233 -13.619551 57.346901 -3.662700 -6.912776 -14.923295 -19.700651 -30.154491 62.070557 8.417316 11.825677 -20.122690 6.217584 7.975534 -14.140238 0.000000 0.000000 0.000000 -14.318018 -6.307482 4.161053 -9.346627 0.295748 -1.424221 -9.230358 -0.173760 -1.338494 0.000000 0.000000 0.000000 -14.453487 -0.996101 1.308747 -9.242119 0.409133 -0.631877 -9.488838 -0.076902 -0.503505 0.000000 0.000000 0.000000 -18.927786 7.491935 -1.337966 -12.149333 -0.850498 0.997661 -12.183587 0.113404 0.762701 0.000000 0.000000 0.000000 -22.072742 16.509113 -5.059045 -14.257009 -1.459063 3.183735 -13.741488 0.494429 2.735700 0.000000 0.000000 0.000000 0.000000 0.000000 0.000000 0.000000 0.000000 0.000000 -0.876605 -9.578620 16.753016 -0.062498 -0.708749 4.700428 -2.806599 -7.264460 16.215134 -0.878324 0.901304 -18.078514 0.000000 0.000000 0.000000 0.000000 0.000000 0.000000 0.000000 0.000000 0.000000 -1.360099 -6.905354 9.823151 0.066137 0.310772 11.678900 3.774238 -1.315557 15.570481 0.233780 -0.460878 -20.552353 0.000000 0.000000 0.000000 0.000000 0.000000 0.000000 0.000000 0.000000 0.000000 
0.034143 88.578545 4.088467 -0.254023 -1.040113 -11.435474 1.276553 0.081459 7.507691 0.016554 0.159434 2.280254 -0.725374 0.523929 5.418890 -1.499008 0.508844 4.731132 -0.375269 0.560031 5.523211 0.298465 0.290646 -2.726924 -0.438079 -1.214898 -19.959040 0.000000 0.000000 0.000000 91.314827 -0.145773 10.767943 67.063583 -27.911976 3.882457 -0.010870 16.321871 27.712488 3.992155 11.752256 -7.610727 20.203297 30.000006 61.736778 -8.793662 -12.849360 -21.542734 -6.589601 -8.453550 -14.901785 0.000000 0.000000 0.000000 14.250452 -11.366028 0.184070 11.073908 0.328424 1.455439 10.739451 -0.098871 1.441369 0.000000 0.000000 0.000000 13.258265 -5.762827 -0.956947 9.736063 0.432306 0.549578 10.237965 -0.062985 0.487640 0.000000 0.000000 0.000000 14.025264 2.041424 -0.996794 10.571950 -0.888019 -0.837754 10.568974 0.069701 -0.616743 0.000000 0.000000 0.000000 13.037071 10.617194 -2.014529 10.478824 -1.680598 -2.336848 10.376745 0.223658 -1.973565 0.000000 0.000000 0.000000 0.000000 0.000000 0.000000 0.000000 0.000000 0.000000 -89.338005 0.315404 4.612656 -70.764503 12.678099 -6.008946 -0.299361 -13.572384 57.256836 -4.119740 -7.246487 -14.889319 -19.586279 -30.182505 62.174744 8.313995 11.586524 -19.790695 6.129208 7.824878 -13.900281 0.000000 0.000000 0.000000 -13.533531 -6.434186 4.339083 -8.848504 0.313595 -1.359150 -8.716381 -0.153950 -1.279422 0.000000 0.000000 0.000000 -13.623315 -1.136031 1.362182 -8.746337 0.417135 -0.605980 -8.988348 -0.069218 -0.480831 0.000000 0.000000 0.000000 -17.997997 7.334174 -1.440590 -11.612456 -0.862061 0.958708 -11.650835 0.103723 0.733187 0.000000 0.000000 0.000000 -21.170383 16.361542 -5.343641 -13.709238 -1.496461 3.061405 -13.210649 0.460952 2.636626 0.000000 0.000000 0.000000 0.000000 0.000000 0.000000 0.000000 0.000000 0.000000 -0.873942 -9.562196 16.819456 -0.062664 -0.711017 4.692621 -2.819203 -7.244977 16.168941 -0.874768 0.902926 -18.057480 0.000000 0.000000 0.000000 0.000000 0.000000 0.000000 0.000000 0.000000 0.000000 -1.326283 -6.904295 9.872681 0.066970 0.313674 11.717362 3.744343 -1.314909 15.533989 0.240492 -0.466766 -20.526796 0.000000 0.000000 0.000000 0.000000 0.000000 0.000000 0.000000 0.000000 0.000000 
0.020762 88.572472 4.130450 -0.250835 -1.006836 -11.461110 1.280139 0.085399 7.514604 0.000148 0.167931 2.228272 -0.749218 0.546425 5.478396 -1.514498 0.511510 4.763802 -0.338241 0.545750 5.589098 0.278304 0.276448 -2.688768 -0.440262 -1.204571 -19.989687 0.000000 0.000000 0.000000 91.301872 -0.156201 10.783168 67.105766 -28.133677 3.896899 -0.020730 16.189911 27.561449 4.377878 11.743850 -7.460718 20.209152 29.999340 61.733112 -8.788353 -12.849076 -21.549238 -6.587637 -8.458495 -14.904235 0.000000 0.000000 0.000000 14.276929 -11.375857 0.187066 11.114133 0.332791 1.442016 10.776175 -0.094188 1.426612 0.000000 0.000000 0.000000 13.269141 -5.763738 -0.992172 9.772521 0.434363 0.545204 10.269075 -0.061009 0.482896 0.000000 0.000000 0.000000 13.967221 2.055726 -1.096092 10.567706 -0.891094 -0.828385 10.575097 0.066777 -0.608208 0.000000 0.000000 0.000000 12.926316 10.632462 -2.181841 10.448236 -1.688766 -2.302426 10.355165 0.216686 -1.948734 0.000000 0.000000 0.000000 0.000000 0.000000 0.000000 0.000000 0.000000 0.000000 -89.364578 0.298203 4.657240 -70.803024 12.926584 -5.960268 -0.284484 -13.553615 57.288960 -4.507120 -7.516674 -14.800128 -19.526079 -30.196808 62.228230 8.258121 11.457465 -19.618652 6.082530 7.747111 -13.772638 0.000000 0.000000 0.000000 -13.149709 -6.493746 4.435410 -8.600054 0.326784 -1.306625 -8.451266 -0.139106 -1.231666 0.000000 0.000000 0.000000 -13.189571 -1.207881 1.375592 -8.501971 0.422935 -0.585735 -8.738241 -0.063550 -0.462784 0.000000 0.000000 0.000000 -17.489000 7.246285 -1.533811 -11.349236 -0.870356 0.927646 -11.393354 0.096627 0.709861 0.000000 0.000000 0.000000 -20.667143 16.276001 -5.567117 -13.426343 -1.523909 2.962853 -12.944315 0.436280 2.556841 0.000000 0.000000 0.000000 0.000000 0.000000 0.000000 0.000000 0.000000 0.000000 -0.868085 -9.554492 16.884464 -0.062941 -0.712840 4.676785 -2.832745 -7.235221 16.134748 -0.871396 0.903876 -18.038542 0.000000 0.000000 0.000000 0.000000 0.000000 0.000000 0.000000 0.000000 0.000000 -1.292234 -6.910380 9.921622 0.067807 0.316392 11.745150 3.713079 -1.312232 15.505203 0.247705 -0.471687 -20.500385 0.000000 0.000000 0.000000 0.000000 0.000000 0.000000 0.000000 0.000000 0.000000 
0.006225 88.568390 4.170786 -0.249619 -0.964271 -11.487020 1.285534 0.090874 7.514643 -0.019540 0.178109 2.187940 -0.769951 0.577644 5.533121 -1.531465 0.519246 4.801641 -0.297139 0.530595 5.648873 0.262314 0.261010 -2.654530 -0.439464 -1.196237 -20.012053 0.000000 0.000000 0.000000 91.289253 -0.164875 10.798223 67.182335 -28.332676 3.894635 -0.029370 16.093779 27.432831 4.696815 11.740010 -7.294547 20.213514 29.999258 61.731281 -8.782723 -12.848660 -21.553583 -6.584723 -8.461810 -14.905004 0.000000 0.000000 0.000000 14.295339 -11.383908 0.222391 11.155034 0.335362 1.436731 10.816713 -0.091294 1.419687 0.000000 0.000000 0.000000 13.278486 -5.764513 -0.995117 9.809465 0.435854 0.543766 10.301498 -0.059587 0.480823 0.000000 0.000000 0.000000 13.927167 2.066712 -1.161383 10.571723 -0.893203 -0.823139 10.587385 0.064689 -0.602639 0.000000 0.000000 0.000000 12.852548 10.643747 -2.308956 10.432540 -1.694534 -2.278361 10.345754 0.211629 -1.931772 0.000000 0.000000 0.000000 0.000000 0.000000 0.000000 0.000000 0.000000 0.000000 -89.382553 0.282798 4.689824 -70.848770 13.197339 -5.921509 -0.264106 -13.538907 57.376030 -4.819016 -7.721994 -14.679275 -19.503698 -30.201336 62.245670 8.237715 11.407464 -19.560831 6.066008 7.720727 -13.725648 0.000000 0.000000 0.000000 -13.050381 -6.506366 4.490986 -8.531090 0.337330 -1.263787 -8.367688 -0.127319 -1.192868 0.000000 0.000000 0.000000 -13.043242 -1.230520 1.380767 -8.434707 0.427394 -0.569603 -8.666196 -0.059161 -0.448366 0.000000 0.000000 0.000000 -17.287582 7.210309 -1.596014 -11.273947 -0.876990 0.902504 -11.324480 0.090979 0.691175 0.000000 0.000000 0.000000 -20.453602 16.237026 -5.716000 -13.323567 -1.546166 2.881906 -12.856218 0.416609 2.491468 0.000000 0.000000 0.000000 0.000000 0.000000 0.000000 0.000000 0.000000 0.000000 -0.860447 -9.554429 16.948849 -0.063286 -0.714071 4.655141 -2.847086 -7.234359 16.110340 -0.868412 0.904045 -18.020252 0.000000 0.000000 0.000000 0.000000 0.000000 0.000000 0.000000 0.000000 0.000000 -1.261945 -6.925064 9.972547 0.068532 0.318883 11.760692 3.683689 -1.307217 15.483218 0.254860 -0.475795 -20.473589 0.000000 0.000000 0.000000 0.000000 0.000000 0.000000 0.000000 0.000000 0.000000 
